    <svg
      xmlns="http://www.w3.org/2000/svg"
      xmlns:xlink="http://www.w3.org/1999/xlink"
      version="1.1"
      id="图层_1"
      x="0px"
      y="0px"
      width="60"
      height="60"
      viewBox="2.599996328353882 6.4579758644104 160.9691619873047 152.0754852294922"
      style="enable-background: new 0 0 166 161"
      xml:space="preserve"
      class="style-removed"
      preserveAspectRatio="none"
      data-parent="shape_pE6kcmQAAv"
    >
      <g>
        <path
          d="M148.5,50.9v1.8c-3.5,0.5-6.4,1.9-8.8,4.4c-2.4,2.5-4.6,6.5-6.5,12.1l-25.4,74.1H106L80.6,67.6h-0.2   l-26.5,75.8h-2.1L25.2,63.5c-1-3.1-2.3-5.4-3.8-7c-1.5-1.6-3.1-2.6-4.6-3c-1.5-0.5-3.1-0.7-4.8-0.8v-1.8h42.2v1.8   c-2.4,0.1-4.4,0.8-6,1.9c-1.6,1.2-2.4,2.9-2.4,5.1c0,1.4,0.3,3.2,1,5.2l13.5,40.7h0.3l16.4-46.7c-0.8-1.7-1.7-3-2.6-3.9   c-0.9-0.9-2.1-1.5-3.4-1.8c-1.3-0.3-3-0.5-5.2-0.7v-1.8h41.2v1.8c-2.4,0-4.3,0.3-5.8,0.9c-1.4,0.6-2.1,2-2.1,4.3   c0,0.9,0.1,1.7,0.3,2.6c0.2,0.8,0.5,1.9,0.8,3.1c0.4,1.2,0.5,1.9,0.6,2l13.4,40.1h0.2L127.3,68c1-3,1.5-5.5,1.5-7.4   c0-3.3-0.9-5.4-2.8-6.4c-1.8-0.9-4.1-1.4-6.9-1.5v-1.8H148.5z"
          fill="#2B3445"
        />
      </g>
      <path
        d="M160.1,57.7c-1.9-6.2-4.6-12.1-8-17.6c-3.5-5.4-7.6-10.5-12.4-14.9c-4.8-4.4-10.2-8-16-11l-2.2-1.1  c-0.7-0.3-1.5-0.7-2.2-1l-4.5-1.8L110,9.1c-0.8-0.3-1.6-0.4-2.4-0.6L105.2,8c-0.8-0.1-1.6-0.4-2.4-0.5l-2.4-0.3  c-1.6-0.2-3.2-0.4-4.9-0.5c-1.6,0-3.3-0.2-4.9-0.2c-0.6,0-1.2,0-1.8,0C79.5,6.2,70,7.5,61.2,10.6c-8.9,3.1-17.3,7.8-24.5,14  c-1.7,1.6-3.5,3.2-5.1,5c-0.8,0.9-1.6,1.7-2.4,2.6L27,35c-0.4,0.5-0.7,0.9-1.1,1.4l-1,1.5l-2,2.9l-1.8,3.1l-0.9,1.5  c-0.3,0.5-0.5,1.1-0.8,1.6c-0.5,1-1,2-1.4,3.1h-0.8c-0.5-0.3-1-0.5-1.3-0.7l-2.3-1.6l1.2,2.3H6.7v3.2l0.7,0c1.6,0.1,3.1,0.3,4.6,0.8  c1.2,0.4,2.5,1.2,3.7,2.3c-1.9,5.8-3.2,11.9-3.5,18c-0.2,2.2-0.2,4.5-0.1,6.7l-0.8-0.8l0.7,2.5c0.1,0.3,0.2,0.6,0.3,0.9  c0.4,6.4,1.7,12.7,3.7,18.8c2.2,6.4,5.4,12.5,9.3,18.1c-2.2-1.2-5-2.3-8.7-3l-1.1-0.2l0.3,1.1c0.1,0.2,1.6,6,11.4,10.1  c2.9,1.2,4.2,2.2,4.3,2.2l1,1c-2.9-0.3-5.1-0.2-6.4-0.1c-0.3,0-0.5,0-0.7,0c-8.5-4.3-14.2-0.4-18.3,2.5c-0.8,0.6-1.6,1.1-2.3,1.6  l-2.2,1.3l2.5,0c0.7,0,2.7,0,3.6,0.2l0.1,0c0.5,0,0.9,0.1,1.4,0.1c7,0,14-3.7,15.2-4.3c0.2,0,0.4,0,0.7,0c1.7-0.1,4.4-0.3,8.1,0.4  c0.1,0.1,0.2,0.1,0.3,0.1c0,0,0.1,0,0.1,0c1,0.2,2.1,0.4,3.3,0.8c-1.9,0.5-3.6,1.3-4.5,1.9c-1.3-0.1-7.8,0-10.6,6.1  c-1,2.4-3.4,4.8-3.5,4.9l-2,2l2.6-0.8c0.5-0.2,12.5-3.8,14.2-10.9c0.4-0.2,0.9-0.5,1.5-0.8c4.9,5,10.6,9.4,16.8,12.7  c2.8,1.5,5.7,2.9,8.7,4.1c3,1.2,6.1,2.1,9.2,2.9c6.2,1.5,12.7,2.2,19.1,2c12.8-0.4,25.5-4.2,36.3-11c6.7-3.9,12.8-8.9,17.9-14.9  c1.2-1.5,2.5-3,3.6-4.6c0.6-0.8,1.2-1.6,1.7-2.4l1.6-2.5c0.5-0.8,1-1.7,1.5-2.6c0.5-0.9,0.9-1.7,1.4-2.6l1.2-2.5  c0.8-1.5,1.6-3,2.3-4.5c2.5-5.5,4.4-11.3,5.5-17.2c1.1-5.9,1.4-12,1-18C163.1,69.4,162,63.4,160.1,57.7z M9,135.9  c-0.4-0.1-1-0.1-1.6-0.2c0.2-0.1,0.4-0.3,0.5-0.4c3.8-2.7,8.6-6,15.7-3C21,133.7,14.7,136.3,9,135.9z M158.1,97.7  c-0.2,0.9-0.3,1.9-0.5,2.8c-0.4,1.9-0.8,3.7-1.4,5.6c-0.3,0.9-0.5,1.8-0.8,2.7l-1,2.7c-0.8,2.2-1.7,4.3-2.8,6.4  c-1.6,2.4-3.3,4.8-5.2,7c-7.7,9.1-17.6,16.1-28.5,20.6l-2.1,0.8l-2.1,0.7c-1.4,0.5-2.8,0.9-4.2,1.3c-1.4,0.4-2.9,0.7-4.3,1  c-1.5,0.3-2.9,0.6-4.4,0.8l-2.2,0.3l-2.2,0.2c-1.4,0.2-2.8,0.2-4.3,0.3c5.7-0.6,11.2-1.8,16.6-3.7c9-3.1,17.3-8.1,24.4-14.4  c7.1-6.3,12.9-14.1,17.1-22.6c7.2-14.7,9-31.9,5.3-47.9c0.4,1.3,0.8,2.5,1.2,3.8c2.1,7.4,2.9,15.2,2.4,22.8l-0.1,1.4l-0.1,1.4  l-0.3,2.9C158.4,95.8,158.2,96.8,158.1,97.7z M53,141.2C53,141.2,53,141.2,53,141.2c0.1,0,0.1,0.1,0.2,0.1c0.1,0.1,0.3,0.1,0.4,0.1  c0.1,0,0.3,0,0.4-0.1c4.6,2.8,9.6,5,14.7,6.7c-5.1-1.2-10.1-2.9-14.8-5.3c-4-1.9-7.7-4.3-11.3-6.9C45.6,137,49.1,138.7,53,141.2z   M19.9,63.7l0.4,1.2c-0.2,1-0.4,2-0.6,3c-0.1,0-0.1,0-0.2-0.1c-0.3-0.1-0.6-0.1-0.9-0.1C19,66.4,19.5,65,19.9,63.7z M33.9,51.6  c-0.5,1.4-0.9,3-1,4.7c-1.4,2.7-3.1,6.4-4.4,10.9c-1.4-9.8-5.4-13.6-8.6-15.7H33.9z M41.5,65.1l13.7,41.2h1.3l16.7-47.5l-0.1-0.3  c-0.9-1.8-1.8-3.1-2.8-4.1c-1-1-2.3-1.6-3.7-1.9c-1.2-0.3-2.8-0.5-4.6-0.6v-0.5h39.8V52c-2.2,0.1-4,0.4-5.3,0.9  c-1.7,0.7-2.6,2.4-2.6,5c0,0.9,0.1,1.8,0.3,2.7c0.2,0.9,0.5,1.9,0.8,3.2c0.4,1.5,0.6,1.9,0.6,2l13.5,40.6h1.3l12.9-38.2  c1-3.1,1.5-5.6,1.5-7.6c0-3.6-1.1-5.9-3.2-7c-1.8-0.9-4-1.4-6.5-1.6v-0.4h28v0.5c-3.4,0.6-6.3,2.1-8.6,4.6  c-2.5,2.6-4.7,6.7-6.6,12.4l-25.2,73.7h-0.9L76.5,66.9h-1.2l-24.7,70.6c-0.4-0.3-0.8-0.7-1.2-1c-2.4-2.6-3.5-8-3.8-10.1l0,0l0.2-0.6  c0.6-2.1,1.3-4.4,2.6-6.4c8.8-14,3.4-20.6,3.2-20.9l-1-1.1l-0.3,1.5c-0.1,0.6-0.6,2.4-1.3,3.3c-6.8,8.2-5.9,14.1-5.2,19.3  c0.2,1.4,0.4,2.8,0.4,4.2l0,0c0,0.1,0,0.3,0,0.5l0,0l0,0c0.1,1.3,0.6,4.1,1.6,6.7c-0.1-0.2-0.3-0.3-0.5-0.5  c-6.1-6.8-10.9-15.1-14-24.3c-0.1-1.6,0.7-3.8,1.1-4.4c0.8-1.1,7.2-9.7,7.9-11.4C40.9,90.8,43,88,43,88l1.9-2.6l-2.8,1.6  c-11.2,6.3-11.1,12-11,15.1c0,0.5,0,0.9,0,1.2c-0.2,0.4-0.5,1.1-0.7,2c-1.4-4.8-2.2-9.4-2.6-13.6l0,0c0,0,0.9-3.1,1.2-4  c0.1-0.2,0.5-0.8,1-1.6c1.2-1.7,2.7-3.3,4.7-4.9c6.1-4.8,4.4-10.5,4.3-10.7L38.2,68l-0.6,2.3c-0.1,0.4-0.5,1.5-1.1,1.8  c-8.1,4.1-8.5,10.6-8.7,13.7c0,0.5-0.1,0.9-0.1,1.2c0,0.1-0.1,0.3-0.1,0.5C27.3,82,27.8,77,28.7,72.6c0.7-2.3,2.1-4.3,4.2-6.1  c0.4,0.3,0.8,0.4,1.2,0.5c0.2,0,0.5,0.1,0.7,0.1c0.7,0,1.3-0.2,1.9-0.6c0.8-0.5,1.3-1.3,1.5-2.2c0.2-0.9,0-1.8-0.5-2.6  c-0.5-0.8-1.3-1.3-2.2-1.5c-0.9-0.2-1.8,0-2.6,0.5c-0.4,0.3-0.8,0.7-1,1.1c0.7-1.6,1.3-3.1,2-4.4c0.1,0,0.1,0.1,0.2,0.1  c0,0,0.1,0,0.1,0c1.7,0,5.3-2,8.2-6.1h6.5V52c-2.2,0.2-4.1,0.9-5.7,2c-1.8,1.3-2.7,3.2-2.7,5.7C40.5,61.2,40.9,63,41.5,65.1z   M50.1,102.9c0.5-0.6,0.9-1.4,1.2-2.2c1,2.5,1.9,8.4-4,17.9c-0.8,1.3-1.4,2.6-1.9,4c-0.1-0.5-0.1-1-0.2-1.4  C44.4,116,43.7,110.7,50.1,102.9z M25,106.2c-1.5-3.8-2.7-7.8-3.5-11.9c1.8,0.8,3.2,1.1,3.7,1.2l1.9,1.6c0.5,3,1.3,6.2,2.3,9.4  c0.2,0.6,0.4,1.2,0.6,1.7c0,0,0,0,0,0c0,0.1,0.1,0.2,0.1,0.3c0.3,0.9,0.6,1.9,1,2.8c-1.8-1.9-3.8-3.5-5.8-4.6  C25.2,106.7,25.1,106.4,25,106.2z M16.2,86.4c0.5,0.3,1,0.5,1.4,0.7c0.4,0.1,1,0.4,1.8,0.9c0.4,0.2,0.7,0.5,1.1,0.9  c1.1,1,2.4,2.6,3.7,5c-0.8-0.2-1.9-0.6-3.1-1.3c-0.4-0.2-0.7-0.4-1.1-0.7c-1.2-0.8-2.5-1.9-3.7-3.3c-0.1-0.2-0.3-0.3-0.4-0.5  c-0.6-0.9-1.2-1.9-1.7-3.1c0.5,0.4,1.2,0.9,1.8,1.3C16,86.4,16.1,86.4,16.2,86.4z M20.1,74.8c0.3-0.1,0.5-0.3,0.8-0.4  c1.5,2.1,3.8,5.3,5.1,9.5c-0.1,3.5,0.1,7.2,0.7,11.2L26,94.4c-2-4.1-4-6.3-5.7-7.5C19.9,82.9,19.8,78.8,20.1,74.8z M16.9,72.6  c-0.3-0.5-0.5-1.1-0.3-1.7c0.1-0.6,0.5-1.1,1-1.4c0,0,0,0,0.1,0c0.2-0.1,0.4-0.2,0.7-0.3c0.2,0,0.3-0.1,0.5-0.1c0.1,0,0.3,0,0.5,0  c0.1,0,0.2,0.1,0.3,0.1c0.4,0.1,0.8,0.4,1.1,0.8c0.4,0.5,0.6,1.1,0.4,1.8c-0.1,0.5-0.4,1-0.8,1.3c-0.3,0.3-0.7,0.4-1.2,0.5  c-0.2,0-0.5,0-0.7,0c-0.4-0.1-0.7-0.2-1-0.5C17.3,73,17.1,72.9,16.9,72.6C17,72.7,17,72.7,16.9,72.6z M27.1,66.8  c-2.1-2.8-6-8.2-9.7-15c0,0,0-0.1,0-0.1C20.5,53.3,25.3,56.1,27.1,66.8z M31.9,65.5c-0.7,0.6-1.4,1.3-2,2c0.5-1.6,1-3.1,1.5-4.5  c0,0,0,0,0,0C31.3,63.8,31.4,64.7,31.9,65.5z M33.1,64.8c-0.3-0.4-0.4-1-0.3-1.5c0.1-0.5,0.4-1,0.9-1.3c0.3-0.2,0.7-0.3,1.1-0.3  c0.1,0,0.3,0,0.4,0c0.5,0.1,1,0.4,1.3,0.9c0.3,0.4,0.4,1,0.3,1.5c-0.1,0.5-0.4,1-0.9,1.3c-0.4,0.3-1,0.4-1.5,0.3  C33.9,65.5,33.4,65.2,33.1,64.8z M29.2,84.6c0.3-3.1,1.5-7.9,7.9-11.1c0.2-0.2,0.5-0.3,0.7-0.6c-0.1,1.8-0.9,4.6-4,7.1  C31.9,81.4,30.4,82.9,29.2,84.6z M32.5,101.2c0-2.7,0.5-6.7,7.6-11.4c-0.4,0.7-0.9,1.5-1.1,2.1C38.6,92.8,35.2,97.5,32.5,101.2z   M24.9,108.3c0.4,0.3,0.9,0.5,1.3,0.8c1.5,1,3.1,2.3,4.4,4c-0.8-0.2-1.8-0.4-2.9-0.8c-0.4-0.1-0.8-0.3-1.2-0.4  c-2.6-1.1-5.5-2.9-7.4-5.8C20.4,106.2,22.5,106.9,24.9,108.3z M36,50.2c2.5-5.1,7-8.3,9.1-9.6c-0.5,4.2-1.9,7.3-3.4,9.6  c-0.3,0.5-0.7,1-1,1.4c-1.4,1.8-2.8,2.9-3.5,3.4c-1.4,0.9-2.4,1.3-2.8,1.3c0.1-1.7,0.5-3.2,1.1-4.7C35.6,51.1,35.8,50.6,36,50.2z   M21.9,73.3c0.2-0.4,0.4-0.8,0.5-1.2c0-0.2,0.1-0.5,0.1-0.7l1.8,5.4C23.4,75.4,22.6,74.3,21.9,73.3z M20.8,68.4  c0.1-0.4,0.1-0.8,0.2-1.2l0.7,2.1C21.5,68.9,21.2,68.6,20.8,68.4z M18.1,75c0.2,0,0.5,0.1,0.7,0.1c0.1,0,0.1,0,0.2,0  c-0.2,3.7-0.1,7.5,0.2,11.2c-0.5-0.2-0.9-0.4-1.2-0.5c-0.5-0.2-1.2-0.5-1.8-1c0.1-3.4,0.4-6.8,1-10.2C17.4,74.8,17.8,74.9,18.1,75z   M20.3,93.7c0.9,4.3,2.1,8.5,3.7,12.5c-1.9-0.9-3.6-1.5-4.8-1.6c-1.3-4.5-2.2-9-2.7-13.7C17.7,92.2,19.1,93.1,20.3,93.7z M32,114.8  l0.6,0.4c3,6.7,7,12.9,11.7,18.2c0.5,0.6,1,1.1,1.5,1.6c-7-5.8-12.8-12.9-17.2-20.8C30.3,114.5,31.5,114.7,32,114.8z M152.4,55.3  c6.1,17.7,5,37.8-3.3,54.6c-4.1,8.4-9.9,16-16.9,22.2c-7,6.2-15.2,11-24,14c-11.6,4-24.3,4.9-36.3,2.6c-6.2-1.8-12.2-4.4-17.7-7.8  c0.1-0.3,0-0.6-0.2-0.8c-0.8-0.5-1.5-1.1-2.3-1.7l24.2-69l25,74.7h2.9l25.5-74.6c1.9-5.4,4-9.4,6.3-11.8c2.3-2.4,5.1-3.8,8.4-4.2  l0.6-0.1v-3.1h-30.8v3.2l0.7,0c2.6,0.1,4.8,0.6,6.6,1.4c1.6,0.8,2.4,2.7,2.4,5.8c0,1.8-0.5,4.2-1.5,7.2l-12.2,36.1L96.9,65.3  c0-0.1-0.1-0.4-0.6-1.9c-0.3-1.2-0.6-2.2-0.8-3.1c-0.2-0.8-0.3-1.6-0.3-2.4c0-2,0.6-3.2,1.7-3.7c1.3-0.6,3.2-0.8,5.5-0.8h0.7v-3.2  H60.5v3.2l0.7,0c2.1,0.1,3.8,0.3,5,0.6c1.2,0.3,2.2,0.8,3.1,1.6c0.8,0.8,1.6,1.9,2.4,3.4l-15.8,45l-13-39.2c-0.6-2-1-3.7-1-5  c0-2,0.7-3.5,2.1-4.5c1.5-1.1,3.4-1.7,5.6-1.8l0.7,0v-3.2h-7c1.7-2.8,3-6.4,3.3-10.8l0.1-1.2l-1.1,0.5c-0.4,0.2-7.9,3.9-11.2,11.5  h-8.1c0.3-0.7,0.7-1.5,1.1-2.2c2.9-4.6,6.3-8.8,10.2-12.6c6.7-6.5,14.6-11.6,23.2-15.3c8.5-3.7,17.8-5.7,27.2-6.2  c15.5,0.1,30.9,5.4,43.1,14.8c6.1,4.7,11.5,10.4,15.8,16.8c1.9,2.8,3.6,5.8,5.1,8.8C152.2,54.6,152.3,54.9,152.4,55.3z M131.7,28  c-12.5-9.4-28.1-14.5-43.7-14.3c-9.4-0.5-19,1.2-27.9,4.7c-8.9,3.5-16.9,9.1-23.5,15.9c-0.8,0.8-1.5,1.6-2.2,2.4  c0.7-0.9,1.3-1.7,2-2.6c8.2-9.8,19-17.3,30.9-21.6c11.8-4.2,24.7-5.1,37-2.9c4,1.1,8,2.6,11.8,4.5c8.4,4.1,16,9.9,22.2,17  c3.5,4,6.6,8.4,9.1,13C143.1,38,137.8,32.5,131.7,28z M20.6,47.6c0.2-0.5,0.5-1.1,0.7-1.6l0.8-1.5l1.7-3.1l1.9-2.9l1-1.5  c0.3-0.5,0.7-0.9,1.1-1.4l2.1-2.8c0.7-0.9,1.6-1.7,2.3-2.6c1.5-1.8,3.3-3.3,5-5c6.9-6.3,15.2-11.2,24-14.5C68.9,8.2,76.9,6.9,85,6.9  c-6.2,0.5-12.3,1.9-18.2,4c-12.2,4.5-23.2,12.3-31.4,22.3c-4,4.8-7.3,10.2-9.9,15.9c-0.2,0.3-0.4,0.7-0.6,1h-5.3  C19.9,49.3,20.2,48.5,20.6,47.6z M12.4,52.8C11,52.4,9.6,52.1,8.1,52v-0.5h7.5c0.2,0.3,0.3,0.6,0.5,0.9c5.6,10,11.4,17.2,11.5,17.3  l0.2,0.3c-0.2,0.7-0.3,1.5-0.5,2.2c0,0.1-0.1,0.2-0.1,0.3c0,0.1,0,0.2,0,0.3c-0.4,1.8-0.6,3.8-0.8,5.8l-5.1-15.3  c-1-3.2-2.3-5.6-3.9-7.3c0,0,0,0,0,0h0C15.6,54.4,14,53.3,12.4,52.8z M13.8,74.6c0.2-5.8,1.3-11.5,3-17c1,1.2,1.9,2.9,2.7,5  c-0.6,1.7-1.1,3.5-1.5,5.3c-0.4,0.1-0.8,0.3-1.2,0.5c-0.8,0.5-1.4,1.4-1.6,2.3c-0.2,1,0,1.9,0.5,2.7c0.3,0.4,0.6,0.7,1,1  c-0.5,3.4-0.8,6.8-0.8,10.3c-0.8-0.6-1.6-1.2-2.2-1.8C13.6,80.1,13.6,77.3,13.8,74.6z M14.3,88.3c0.5,0.8,1.1,1.5,1.6,2.1  c0.1,3.1,0.4,6.3,1,9.4C15.7,96,14.9,92.2,14.3,88.3z M21.1,110.2c2.1,1.8,4.5,2.8,6.5,3.5c4.6,8.5,11,16.1,18.5,22.1  c-1.2-0.5-2.3-1-3.4-1.4c-0.1,0-0.1-0.1-0.2-0.1c-0.2-0.1-0.4-0.2-0.7-0.2c-1-0.4-1.9-0.7-2.8-0.9c-2.4-2.1-5.3-5-7.3-7.2  C27.5,121.2,23.9,115.9,21.1,110.2z M30.8,128.8c-0.7-0.4-1.8-0.9-3.1-1.5c-6.6-2.7-9.1-6.2-10.1-8C27.1,121.5,30,126.3,30.8,128.8z   M34.8,132.2l-2.2-2.2c0-0.2-0.1-0.4-0.1-0.6c1,1,2,2,3,2.9C35.2,132.2,35,132.2,34.8,132.2z M22.1,146c0.7-0.9,1.5-2.1,2-3.2  c2.2-4.7,6.7-5.2,8.6-5.2C31.3,141.7,25.5,144.6,22.1,146z M142.8,131.4c-0.6,0.8-1.2,1.5-1.9,2.2c-0.6,0.7-1.2,1.5-1.9,2.2  c-1.4,1.4-2.7,2.8-4.2,4c-2.8,2.7-6,4.9-9.1,7.2c-10.9,6.6-23.5,10.2-36.2,10.3c-6.3,0.1-12.7-0.7-18.8-2.2c-3.1-0.8-6.1-1.7-9-3  c-2.9-1.2-5.8-2.6-8.5-4.1c-5.8-3.3-11-7.4-15.7-12.2c0.5-0.2,1-0.3,1.5-0.4c4.3,3.5,8.9,6.5,13.9,8.9c10.1,4.9,21.3,7.3,32.4,7.1  c11.1,1.3,22.6-0.2,33.1-4.3c10-3.9,19-10.3,26.2-18.2C144.1,129.8,143.5,130.7,142.8,131.4z M161.6,93.2c-0.7,3.4-1.6,6.8-2.8,10.1  c0.2-0.8,0.4-1.6,0.6-2.4c0.3-1,0.4-1.9,0.5-2.9c0.1-1,0.3-1.9,0.4-2.9l0.3-2.9l0.1-1.5l0-1.5c0.3-7.9-0.6-15.8-2.8-23.3  c-1.5-5.3-3.7-10.5-6.4-15.3c-3.1-7.3-7.4-14.1-12.7-20c-6.3-7.1-14-12.9-22.5-17c-2.5-1.2-5-2.2-7.7-3.1c0.3,0.1,0.6,0.1,0.9,0.2  l4.6,1.3l4.5,1.7c0.8,0.3,1.5,0.6,2.2,1l2.2,1c5.7,2.8,11,6.4,15.9,10.5c4.9,4.1,9,9.1,12.6,14.4c3.6,5.3,6.4,11.1,8.5,17.2  c1.7,5.7,2.8,11.6,3.1,17.6C163.3,81.4,162.8,87.3,161.6,93.2z"
        fill="#2B3445"
      />
      <path
        d="M114.4,30.3c-0.6-0.2-1.2,0-1.5,0.6c-0.2,0.6,0,1.2,0.6,1.5c0.6,0.2,1.2,0,1.5-0.6  C115.2,31.2,115,30.5,114.4,30.3z"
        fill="#2B3445"
      />
      <path
        d="M131.8,110.6c-0.7-0.3-1.5,0.1-1.7,0.7c-0.3,0.7,0.1,1.5,0.7,1.7c0.7,0.3,1.5-0.1,1.7-0.7  C132.9,111.7,132.5,110.9,131.8,110.6z"
        fill="#2B3445"
      />
      <path
        d="M143.8,91.4C143.8,91.3,143.8,91.3,143.8,91.4c-0.2,2.9-1.8,5.1-3.8,5.4c0,0,0,0.1,0,0.1c2,0.3,3.6,2.5,3.7,5.4  c0,0,0,0,0,0c0.2-2.9,1.8-5.1,3.7-5.4c0,0,0-0.1,0-0.1C145.6,96.5,144,94.2,143.8,91.4z"
        fill="#2B3445"
      />
      <path
        d="M92.8,30.8C92.8,30.8,92.8,30.8,92.8,30.8c-0.2,2.3-1.5,4.2-3.1,4.4c0,0,0,0,0,0c1.6,0.2,2.9,2.1,3.1,4.4  c0,0,0,0,0,0c0.2-2.3,1.4-4.2,3.1-4.4c0,0,0,0,0,0C94.2,35,92.9,33.2,92.8,30.8z"
        fill="#2B3445"
      />
    </svg>